<svg xmlns="http://www.w3.org/2000/svg" viewBox="0 0 602.98 221.71"><defs><style>.cls-1,.cls-11,.cls-5{fill:#331800;}.cls-2{fill:#4cb017;}.cls-3{fill:#0b6623;}.cls-4{fill:#043927;}.cls-5{font-size:44.23px;font-family:Ubuntu-Bold, Ubuntu;font-weight:700;letter-spacing:-0.05em;}.cls-6{letter-spacing:-0.07em;}.cls-7{letter-spacing:-0.05em;}.cls-8{letter-spacing:-0.02em;}.cls-10,.cls-9{font-size:27.64px;font-family:ZillaSlab-SemiBold, Zilla Slab;}.cls-10,.cls-11,.cls-9{font-weight:600;}.cls-9{letter-spacing:-0.06em;}.cls-10{letter-spacing:-0.05em;}.cls-11{font-size:22.11px;font-family:ZillaSlab-SemiBoldItalic, Zilla Slab;font-style:italic;letter-spacing:-0.02em;}.cls-12{letter-spacing:-0.04em;}.cls-13{letter-spacing:-0.05em;}.cls-14{letter-spacing:-0.03em;}.cls-15{letter-spacing:-0.03em;}</style></defs><g id="Layer_2" data-name="Layer 2"><g id="Layer_1-2" data-name="Layer 1"><path class="cls-1" d="M129.19,122.6c-4.89,5.78-9.65,11.67-14.7,17.3-2.85,3.17-2.8,5.92-1.12,9.81,9.86,22.87-.87,53.54-17.07,68.3-4.29,3.91-13.47,2.46-22,3.7,7-8.65,13-15.1,17.79-22.39,8.9-13.6,14.62-28.26,11.81-45.15a11.19,11.19,0,0,1,2.05-8c7-8.6,14.45-16.8,21.74-25.15Z"/><path class="cls-1" d="M90.76,194.7c-11-25.76-6.84-46.42,12.1-63.56,7.53-6.82,16.13-12.46,23.57-19.37,8.64-8,16.54-16.9,23.49-24.08-2.07,8.71-9.21,16.8-17,24.46-8.74,8.58-17.79,16.87-26.25,25.72a33.7,33.7,0,0,0-8.86,30.48C99.73,178.3,94.68,185.18,90.76,194.7Z"/><path class="cls-1" d="M100.51,93.12a12.67,12.67,0,1,1,.8,25.33,12.54,12.54,0,0,1-13.1-12.59A13,13,0,0,1,100.51,93.12Z"/><path class="cls-1" d="M123.44,168.63c-1.48,10-1.59,20.42-4.86,29.76-2.79,8-1.38,12.75,4.56,17.43,1.22,1,2.28,2.15,4.84,4.6-9.13-.3-17,2.39-25-3.28a86.16,86.16,0,0,0,18.19-49.07Z"/><path class="cls-1" d="M97.7,129.88l-4.62,4.94c-14.47-15.93-34.47-26.74-41-49C61.8,105.66,81.8,115,97.7,129.88Z"/><path class="cls-2" d="M20.72,121.87c-5.1,8.9-12.6,10.84-20.66,5.66C3.51,118.73,11.9,116.31,20.72,121.87Z"/><path class="cls-2" d="M202,81.34c-4.86,9.08-11.92,11.06-20.56,6.09C184.29,78.76,192.61,76.16,202,81.34Z"/><path class="cls-2" d="M181.19,121.8c8-5.35,15.27-3.6,20.66,5C195.23,133.28,185.41,130.91,181.19,121.8Z"/><path class="cls-2" d="M75.57,26.52c-8.95-5.35-10.79-12.74-5.44-20.63C78.93,9.35,81.35,18,75.57,26.52Z"/><path class="cls-2" d="M31,28.26c10.22.55,15.24,6,14.52,15.12C36.15,45,28.69,37.39,31,28.26Z"/><path class="cls-2" d="M30.57,180.13c-1.09-9,4.62-15,14.4-15.14C47.35,174,40.25,181.45,30.57,180.13Z"/><path class="cls-2" d="M131.21,5.57c5.89,8,3.54,16.65-5.32,20.7C120.56,18.16,122.38,10.67,131.21,5.57Z"/><path class="cls-2" d="M156.14,165.13c9.91-.37,15.55,5.3,15.12,14.84C162.18,181.72,155.53,175.4,156.14,165.13Z"/><path class="cls-2" d="M0,81.53C8,76,16.42,78.35,20.49,87.12,12.22,92.64,3.72,90.32,0,81.53Z"/><path class="cls-2" d="M156,43.6c0-10.31,5.63-15.79,15-15C172.33,37.93,165.93,44.49,156,43.6Z"/><path class="cls-3" d="M122.57,73.31c7.71,1.74,8.69,8.45,8.59,12.29,5.12-12.53-2.53-25.78-16.44-27.82-5.44,13.18,3,27.46,16.08,28C129.94,76.31,122.57,73.31,122.57,73.31Z"/><path class="cls-3" d="M91.23,57.68C79,57.16,68.39,74.88,74.94,85.52c-.78-9.26,10-12.11,10-12.11C77.26,77,75.66,83,75.34,85.9,86.84,86,97.65,69.34,91.23,57.68Z"/><path class="cls-3" d="M129.76,153.76c7.34,5,3.35,15,3.35,15,1.6-7.7-1.6-12.44-3.8-14.68-5.52,11.78,2,25.35,16,27.92C152.19,172.47,142.67,153.76,129.76,153.76Z"/><path class="cls-3" d="M74.12,157.93c-.4-2.14-1.07-3.44-2.21-4-7.93,5.37-7,13.31-7,13.31-2.23-7.56,3.12-11.68,6.52-13.47a6.24,6.24,0,0,0-3.72.51A20.73,20.73,0,0,0,56.14,182C68,180.19,76.15,169,74.12,157.93Z"/><path class="cls-3" d="M158.5,103.41c7.1-3.85,14.3,3,14.3,3-6.61-4.39-12.25-3.12-15.12-1.9,9.33,11.22,24,11.14,32.78,0C182.68,93.82,168,93.31,158.5,103.41Z"/><path class="cls-3" d="M28.45,101.65c6.75,5.16,12.8,3.77,15.53,2.69-9.26-11.1-24.23-11-32.69,0,7.78,11,22.89,11.29,32.48.54C36,109.83,28.45,101.65,28.45,101.65Z"/><path class="cls-3" d="M145.64,27.07c-12.34-.53-23,17.48-16.14,28.1-.56-9.61,10.68-11.91,10.68-11.91-8,3.15-9.88,9.16-10.33,12C141.31,55.24,152.05,38.69,145.64,27.07Z"/><path class="cls-3" d="M63.41,42.55c7.91,1.35,9.17,8.2,9.24,12C77.59,42.09,70,29,56.12,27,50.66,40.18,59.2,54.52,72.36,55,71.15,45.21,63.41,42.55,63.41,42.55Z"/><path class="cls-4" d="M100.76,0c-18.18,12.58-18.65,40.21-.83,54.77-10-13,3.76-26.66,3.76-26.66-9,12.78-4.76,23.66-2.85,27.31C119.61,41.44,119.49,12.1,100.76,0Z"/><path class="cls-4" d="M147.58,79.73c17.82-.94,22.81-14.79,22.81-14.79-2.8,15-17.28,15.42-22.59,15,22.14,7.32,46.06-9.47,45.32-31.71C172.15,40.42,148.84,56.29,147.58,79.73Z"/><path class="cls-4" d="M31.87,139.47c13.91-.07,20.53-7.79,23.14-12.06-21-7.68-44.18,8.26-45.32,31.71,21.81,7.39,45.42-8.73,45.56-30.45C49.69,142.52,31.87,139.47,31.87,139.47Z"/><path class="cls-4" d="M24.89,70.52s18.8-6,25.61,9.25C49.26,56.31,25.94,40.42,5,48.28,4.21,70.48,28,87.24,50.14,80,47.43,76.4,39.7,68.49,24.89,70.52Z"/><path class="cls-4" d="M146.28,127.45c7,15.27,21,15.35,21,15.35-13.42,2.11-19-8.35-21.11-14.3,0,21.81,23.69,38,45.56,30.62C190.6,135.61,167.29,119.65,146.28,127.45Z"/><text class="cls-5" transform="translate(214.43 125.67)">SPECIALI<tspan class="cls-6" x="176.73" y="0">S</tspan><tspan class="cls-7" x="199.37" y="0">T </tspan><tspan class="cls-8" x="232.72" y="0">C</tspan><tspan class="cls-7" x="260.4" y="0">ARE </tspan><tspan class="cls-9" x="350.36" y="0">L</tspan><tspan class="cls-10" x="364.07" y="0">td</tspan></text><text class="cls-11" transform="translate(229.86 153.82)">Emp<tspan class="cls-12" x="40.25" y="0">o</tspan><tspan x="50.11" y="0">wering</tspan><tspan class="cls-13" x="109.61" y="0"> </tspan><tspan class="cls-14" x="112.87" y="0">wellness, Enriching l</tspan><tspan class="cls-15" x="286.1" y="0">i</tspan><tspan x="291.25" y="0">ves</tspan></text></g></g></svg>